<svg width="14" height="14" viewBox="0 0 14 14" fill="none" xmlns="http://www.w3.org/2000/svg">
<g clip-path="url(#clip0_3767_11496)">
<path d="M7 13.125C5.37555 13.125 3.81763 12.4797 2.66897 11.331C1.52031 10.1824 0.875 8.62445 0.875 7C0.875 5.37555 1.52031 3.81763 2.66897 2.66897C3.81763 1.52031 5.37555 0.875 7 0.875C8.62445 0.875 10.1824 1.52031 11.331 2.66897C12.4797 3.81763 13.125 5.37555 13.125 7C13.125 8.62445 12.4797 10.1824 11.331 11.331C10.1824 12.4797 8.62445 13.125 7 13.125ZM7 14C8.85652 14 10.637 13.2625 11.9497 11.9497C13.2625 10.637 14 8.85652 14 7C14 5.14348 13.2625 3.36301 11.9497 2.05025C10.637 0.737498 8.85652 0 7 0C5.14348 0 3.36301 0.737498 2.05025 2.05025C0.737498 3.36301 0 5.14348 0 7C0 8.85652 0.737498 10.637 2.05025 11.9497C3.36301 13.2625 5.14348 14 7 14Z" fill="#BA1718"/>
<path d="M6.12695 9.62501C6.12695 9.5101 6.14959 9.39632 6.19356 9.29016C6.23753 9.184 6.30198 9.08754 6.38323 9.00629C6.46449 8.92504 6.56095 8.86059 6.66711 8.81662C6.77327 8.77264 6.88705 8.75001 7.00195 8.75001C7.11686 8.75001 7.23064 8.77264 7.3368 8.81662C7.44296 8.86059 7.53942 8.92504 7.62067 9.00629C7.70192 9.08754 7.76637 9.184 7.81035 9.29016C7.85432 9.39632 7.87695 9.5101 7.87695 9.62501C7.87695 9.85708 7.78477 10.0796 7.62067 10.2437C7.45658 10.4078 7.23402 10.5 7.00195 10.5C6.76989 10.5 6.54733 10.4078 6.38323 10.2437C6.21914 10.0796 6.12695 9.85708 6.12695 9.62501ZM6.2127 4.37064C6.20105 4.26025 6.21274 4.14864 6.247 4.04306C6.28127 3.93748 6.33735 3.84028 6.41161 3.75777C6.48586 3.67527 6.57664 3.60929 6.67804 3.56413C6.77944 3.51897 6.8892 3.49564 7.0002 3.49564C7.11121 3.49564 7.22097 3.51897 7.32237 3.56413C7.42377 3.60929 7.51454 3.67527 7.5888 3.75777C7.66306 3.84028 7.71914 3.93748 7.7534 4.04306C7.78767 4.14864 7.79936 4.26025 7.7877 4.37064L7.48145 7.43926C7.47116 7.55981 7.41601 7.67211 7.32689 7.75394C7.23777 7.83578 7.12119 7.88118 7.0002 7.88118C6.87921 7.88118 6.76263 7.83578 6.67352 7.75394C6.5844 7.67211 6.52924 7.55981 6.51895 7.43926L6.2127 4.37064Z" fill="#BA1718"/>
</g>
<defs>
<clipPath id="clip0_3767_11496">
<rect width="14" height="14" fill="white"/>
</clipPath>
</defs>
</svg>
