<svg width="16" height="25" viewBox="0 0 16 25" fill="none" xmlns="http://www.w3.org/2000/svg">
<path fill-rule="evenodd" clip-rule="evenodd" d="M0.658832 0.282455C0.760309 0.192921 0.88086 0.121885 1.01358 0.073417C1.1463 0.0249487 1.28858 0 1.43227 0C1.57596 0 1.71824 0.0249487 1.85096 0.073417C1.98368 0.121885 2.10423 0.192921 2.20571 0.282455L15.3148 11.8196C15.4166 11.9089 15.4973 12.015 15.5524 12.1318C15.6074 12.2486 15.6358 12.3738 15.6358 12.5003C15.6358 12.6267 15.6074 12.7519 15.5524 12.8687C15.4973 12.9855 15.4166 13.0916 15.3148 13.1809L2.20571 24.7181C2.00058 24.8986 1.72237 25 1.43227 25C1.14218 25 0.863961 24.8986 0.658832 24.7181C0.453703 24.5375 0.338463 24.2927 0.338463 24.0374C0.338463 23.7821 0.453703 23.5372 0.658832 23.3567L12.9967 12.5003L0.658832 1.64383C0.557098 1.55453 0.476383 1.44843 0.42131 1.33163C0.366238 1.21482 0.337891 1.08961 0.337891 0.963144C0.337891 0.836684 0.366238 0.711465 0.42131 0.594661C0.476383 0.477858 0.557098 0.371763 0.658832 0.282455Z" fill="white"/>
</svg>
