<svg width="16" height="25" viewBox="0 0 16 25" fill="none" xmlns="http://www.w3.org/2000/svg">
<path fill-rule="evenodd" clip-rule="evenodd" d="M15.3196 24.7175C15.2181 24.8071 15.0976 24.8781 14.9648 24.9266C14.8321 24.9751 14.6898 25 14.5461 25C14.4024 25 14.2601 24.9751 14.1273 24.9266C13.9946 24.8781 13.874 24.8071 13.7725 24.7175L0.661609 13.1804C0.559861 13.0911 0.479136 12.985 0.424055 12.8682C0.368975 12.7514 0.340624 12.6262 0.340624 12.4997C0.340624 12.3733 0.368975 12.2481 0.424055 12.1313C0.479136 12.0145 0.559861 11.9084 0.661609 11.8191L13.7725 0.28195C13.9777 0.101419 14.256 0 14.5461 0C14.8362 0 15.1145 0.101419 15.3196 0.28195C15.5248 0.462481 15.6401 0.707333 15.6401 0.962641C15.6401 1.21795 15.5248 1.4628 15.3196 1.64333L2.98006 12.4997L15.3196 23.3562C15.4214 23.4455 15.5021 23.5516 15.5572 23.6684C15.6123 23.7852 15.6406 23.9104 15.6406 24.0369C15.6406 24.1633 15.6123 24.2885 15.5572 24.4053C15.5021 24.5221 15.4214 24.6282 15.3196 24.7175Z" fill="white"/>
</svg>
