<svg width="20" height="20" viewBox="0 0 20 20" fill="none" xmlns="http://www.w3.org/2000/svg">
<g clip-path="url(#clip0_3780_10910)">
<path d="M10.0002 3.43512L9.1039 2.51387C7.00015 0.351374 3.14265 1.09762 1.75015 3.81637C1.14765 4.99387 0.975153 6.65387 1.88515 8.75012H0.537653C-2.12235 1.62887 5.7439 -2.28738 9.78015 1.42887C9.85515 1.49804 9.92849 1.56929 10.0002 1.64262C10.0706 1.56883 10.144 1.49794 10.2202 1.43012C14.2577 -2.28738 22.1227 1.62887 19.4627 8.75012H18.1152C19.0252 6.65387 18.8527 4.99387 18.2502 3.81637C16.8577 1.09762 13.0002 0.350123 10.8964 2.51262L10.0002 3.43512ZM2.76515 12.5001H4.4089C5.7414 13.9789 7.56265 15.5726 10.0002 17.2439C12.4364 15.5726 14.2589 13.9789 15.5914 12.5001H17.2352C15.6539 14.4576 13.3102 16.5626 10.0002 18.7501C6.69015 16.5626 4.3464 14.4576 2.76515 12.5001Z" fill=""/>
<path d="M13.08 4.14253C13.0315 4.02152 12.9464 3.91869 12.8366 3.84846C12.7267 3.77822 12.5977 3.74409 12.4675 3.75084C12.3373 3.75759 12.2125 3.80489 12.1105 3.8861C12.0085 3.96732 11.9345 4.0784 11.8988 4.20378L9.90125 11.195L8.08 6.64253C8.03758 6.53693 7.96714 6.44491 7.87626 6.3764C7.78538 6.30789 7.67752 6.26549 7.56432 6.25379C7.45112 6.24208 7.33686 6.26151 7.23389 6.30997C7.13092 6.35843 7.04313 6.43409 6.98 6.52878L4.665 10H0.625C0.45924 10 0.300269 10.0659 0.183058 10.1831C0.065848 10.3003 0 10.4593 0 10.625C0 10.7908 0.065848 10.9498 0.183058 11.067C0.300269 11.1842 0.45924 11.25 0.625 11.25H5C5.10293 11.25 5.20425 11.2245 5.29496 11.1759C5.38568 11.1273 5.46298 11.057 5.52 10.9713L7.36125 8.21003L9.42 13.3575C9.46849 13.4786 9.55361 13.5814 9.66345 13.6516C9.77328 13.7218 9.90233 13.756 10.0325 13.7492C10.1627 13.7425 10.2875 13.6952 10.3895 13.614C10.4915 13.5327 10.5655 13.4217 10.6012 13.2963L12.5988 6.30503L14.42 10.8575C14.4664 10.9734 14.5465 11.0727 14.6499 11.1427C14.7532 11.2126 14.8752 11.25 15 11.25H19.375C19.5408 11.25 19.6997 11.1842 19.8169 11.067C19.9342 10.9498 20 10.7908 20 10.625C20 10.4593 19.9342 10.3003 19.8169 10.1831C19.6997 10.0659 19.5408 10 19.375 10H15.4225L13.08 4.14253Z" fill=""/>
<path d="M10.0002 3.43512L9.1039 2.51387C7.00015 0.351374 3.14265 1.09762 1.75015 3.81637C1.14765 4.99387 0.975153 6.65387 1.88515 8.75012H0.537653C-2.12235 1.62887 5.7439 -2.28738 9.78015 1.42887C9.85515 1.49804 9.92849 1.56929 10.0002 1.64262C10.0706 1.56883 10.144 1.49794 10.2202 1.43012C14.2577 -2.28738 22.1227 1.62887 19.4627 8.75012H18.1152C19.0252 6.65387 18.8527 4.99387 18.2502 3.81637C16.8577 1.09762 13.0002 0.350123 10.8964 2.51262L10.0002 3.43512ZM2.76515 12.5001H4.4089C5.7414 13.9789 7.56265 15.5726 10.0002 17.2439C12.4364 15.5726 14.2589 13.9789 15.5914 12.5001H17.2352C15.6539 14.4576 13.3102 16.5626 10.0002 18.7501C6.69015 16.5626 4.3464 14.4576 2.76515 12.5001Z" fill=""/>
<path d="M13.08 4.14253C13.0315 4.02152 12.9464 3.91869 12.8366 3.84846C12.7267 3.77822 12.5977 3.74409 12.4675 3.75084C12.3373 3.75759 12.2125 3.80489 12.1105 3.8861C12.0085 3.96732 11.9345 4.0784 11.8988 4.20378L9.90125 11.195L8.08 6.64253C8.03758 6.53693 7.96714 6.44491 7.87626 6.3764C7.78538 6.30789 7.67752 6.26549 7.56432 6.25379C7.45112 6.24208 7.33686 6.26151 7.23389 6.30997C7.13092 6.35843 7.04313 6.43409 6.98 6.52878L4.665 10H0.625C0.45924 10 0.300269 10.0659 0.183058 10.1831C0.065848 10.3003 0 10.4593 0 10.625C0 10.7908 0.065848 10.9498 0.183058 11.067C0.300269 11.1842 0.45924 11.25 0.625 11.25H5C5.10293 11.25 5.20425 11.2245 5.29496 11.1759C5.38568 11.1273 5.46298 11.057 5.52 10.9713L7.36125 8.21003L9.42 13.3575C9.46849 13.4786 9.55361 13.5814 9.66345 13.6516C9.77328 13.7218 9.90233 13.756 10.0325 13.7492C10.1627 13.7425 10.2875 13.6952 10.3895 13.614C10.4915 13.5327 10.5655 13.4217 10.6012 13.2963L12.5988 6.30503L14.42 10.8575C14.4664 10.9734 14.5465 11.0727 14.6499 11.1427C14.7532 11.2126 14.8752 11.25 15 11.25H19.375C19.5408 11.25 19.6997 11.1842 19.8169 11.067C19.9342 10.9498 20 10.7908 20 10.625C20 10.4593 19.9342 10.3003 19.8169 10.1831C19.6997 10.0659 19.5408 10 19.375 10H15.4225L13.08 4.14253Z" fill=""/>
</g>
<defs>
<clipPath id="clip0_3780_10910">
<rect width="20" height="20" fill=""/>
</clipPath>
</defs>
</svg>
