<svg width="10" height="10" viewBox="0 0 10 10" fill="none" xmlns="http://www.w3.org/2000/svg">
<g clip-path="url(#clip0_3780_10792)">
<path d="M5 9.375C3.83968 9.375 2.72688 8.91406 1.90641 8.09359C1.08594 7.27312 0.625 6.16032 0.625 5C0.625 3.83968 1.08594 2.72688 1.90641 1.90641C2.72688 1.08594 3.83968 0.625 5 0.625C6.16032 0.625 7.27312 1.08594 8.09359 1.90641C8.91406 2.72688 9.375 3.83968 9.375 5C9.375 6.16032 8.91406 7.27312 8.09359 8.09359C7.27312 8.91406 6.16032 9.375 5 9.375ZM5 10C6.32608 10 7.59785 9.47322 8.53553 8.53553C9.47322 7.59785 10 6.32608 10 5C10 3.67392 9.47322 2.40215 8.53553 1.46447C7.59785 0.526784 6.32608 0 5 0C3.67392 0 2.40215 0.526784 1.46447 1.46447C0.526784 2.40215 0 3.67392 0 5C0 6.32608 0.526784 7.59785 1.46447 8.53553C2.40215 9.47322 3.67392 10 5 10Z" fill="white"/>
<path d="M6.25 5C6.25 5.33152 6.1183 5.64946 5.88388 5.88388C5.64946 6.1183 5.33152 6.25 5 6.25C4.66848 6.25 4.35054 6.1183 4.11612 5.88388C3.8817 5.64946 3.75 5.33152 3.75 5C3.75 4.66848 3.8817 4.35054 4.11612 4.11612C4.35054 3.8817 4.66848 3.75 5 3.75C5.33152 3.75 5.64946 3.8817 5.88388 4.11612C6.1183 4.35054 6.25 4.66848 6.25 5ZM5 2.5C4.33696 2.5 3.70107 2.76339 3.23223 3.23223C2.76339 3.70107 2.5 4.33696 2.5 5C2.5 5.08288 2.46708 5.16237 2.40847 5.22097C2.34987 5.27958 2.27038 5.3125 2.1875 5.3125C2.10462 5.3125 2.02513 5.27958 1.96653 5.22097C1.90792 5.16237 1.875 5.08288 1.875 5C1.875 4.1712 2.20424 3.37634 2.79029 2.79029C3.37634 2.20424 4.1712 1.875 5 1.875C5.08288 1.875 5.16237 1.90792 5.22097 1.96653C5.27958 2.02513 5.3125 2.10462 5.3125 2.1875C5.3125 2.27038 5.27958 2.34987 5.22097 2.40847C5.16237 2.46708 5.08288 2.5 5 2.5ZM7.8125 4.6875C7.89538 4.6875 7.97487 4.72042 8.03347 4.77903C8.09208 4.83763 8.125 4.91712 8.125 5C8.125 5.8288 7.79576 6.62366 7.20971 7.20971C6.62366 7.79576 5.8288 8.125 5 8.125C4.91712 8.125 4.83763 8.09208 4.77903 8.03347C4.72042 7.97487 4.6875 7.89538 4.6875 7.8125C4.6875 7.72962 4.72042 7.65013 4.77903 7.59153C4.83763 7.53292 4.91712 7.5 5 7.5C5.66304 7.5 6.29893 7.23661 6.76777 6.76777C7.23661 6.29893 7.5 5.66304 7.5 5C7.5 4.91712 7.53292 4.83763 7.59153 4.77903C7.65013 4.72042 7.72962 4.6875 7.8125 4.6875Z" fill="white"/>
</g>
<defs>
<clipPath id="clip0_3780_10792">
<rect width="10" height="10" fill="white"/>
</clipPath>
</defs>
</svg>
