<svg width="15" height="15" viewBox="0 0 15 15" fill="none" xmlns="http://www.w3.org/2000/svg">
<path d="M15 7.5C15 9.48912 14.2098 11.3968 12.8033 12.8033C11.3968 14.2098 9.48912 15 7.5 15C5.51088 15 3.60322 14.2098 2.1967 12.8033C0.790176 11.3968 0 9.48912 0 7.5C0 5.51088 0.790176 3.60322 2.1967 2.1967C3.60322 0.790176 5.51088 0 7.5 0C9.48912 0 11.3968 0.790176 12.8033 2.1967C14.2098 3.60322 15 5.51088 15 7.5ZM9.375 7.5C9.375 7.00272 9.17746 6.52581 8.82582 6.17417C8.47419 5.82254 7.99728 5.625 7.5 5.625C7.00272 5.625 6.52581 5.82254 6.17417 6.17417C5.82254 6.52581 5.625 7.00272 5.625 7.5C5.625 7.99728 5.82254 8.47419 6.17417 8.82582C6.52581 9.17746 7.00272 9.375 7.5 9.375C7.99728 9.375 8.47419 9.17746 8.82582 8.82582C9.17746 8.47419 9.375 7.99728 9.375 7.5ZM3.75 7.5C3.75 6.50544 4.14509 5.55161 4.84835 4.84835C5.55161 4.14509 6.50544 3.75 7.5 3.75C7.62432 3.75 7.74355 3.70061 7.83146 3.61271C7.91936 3.5248 7.96875 3.40557 7.96875 3.28125C7.96875 3.15693 7.91936 3.0377 7.83146 2.94979C7.74355 2.86189 7.62432 2.8125 7.5 2.8125C6.2568 2.8125 5.06451 3.30636 4.18544 4.18544C3.30636 5.06451 2.8125 6.2568 2.8125 7.5C2.8125 7.62432 2.86189 7.74355 2.94979 7.83146C3.0377 7.91936 3.15693 7.96875 3.28125 7.96875C3.40557 7.96875 3.5248 7.91936 3.61271 7.83146C3.70061 7.74355 3.75 7.62432 3.75 7.5ZM12.1875 7.5C12.1875 7.37568 12.1381 7.25645 12.0502 7.16854C11.9623 7.08064 11.8431 7.03125 11.7188 7.03125C11.5944 7.03125 11.4752 7.08064 11.3873 7.16854C11.2994 7.25645 11.25 7.37568 11.25 7.5C11.25 8.49456 10.8549 9.44839 10.1517 10.1517C9.44839 10.8549 8.49456 11.25 7.5 11.25C7.37568 11.25 7.25645 11.2994 7.16854 11.3873C7.08064 11.4752 7.03125 11.5944 7.03125 11.7188C7.03125 11.8431 7.08064 11.9623 7.16854 12.0502C7.25645 12.1381 7.37568 12.1875 7.5 12.1875C8.7432 12.1875 9.93549 11.6936 10.8146 10.8146C11.6936 9.93549 12.1875 8.7432 12.1875 7.5Z" fill="#BA1718"/>
</svg>
