<svg width="15" height="15" viewBox="0 0 15 15" fill="none" xmlns="http://www.w3.org/2000/svg">
<path d="M6.56156 1.84615C7.34774 1.35213 8.22379 1.11478 9.10585 1.15684C9.9879 1.19889 10.8464 1.51894 11.5992 2.08634C12.3519 2.65374 12.9738 3.44948 13.4051 4.39738C13.8364 5.34528 14.0627 6.41358 14.0625 7.5C14.0625 7.65301 14.1119 7.79975 14.1998 7.90795C14.2877 8.01614 14.4069 8.07692 14.5312 8.07692C14.6556 8.07692 14.7748 8.01614 14.8627 7.90795C14.9506 7.79975 15 7.65301 15 7.5C15 5.51088 14.358 3.60322 13.2152 2.1967C12.0724 0.790176 10.5224 0 8.90625 0C7.29009 0 5.74012 0.790176 4.59732 2.1967C3.45452 3.60322 2.8125 5.51088 2.8125 7.5C2.81233 8.35572 2.96683 9.20076 3.2648 9.97391C3.56277 10.7471 3.99675 11.4289 4.53529 11.9702C5.07384 12.5114 5.70346 12.8984 6.37854 13.1031C7.05362 13.3078 7.75724 13.3252 8.43844 13.1538C7.65226 13.6479 6.77621 13.8852 5.89415 13.8432C5.0121 13.8011 4.15359 13.4811 3.40082 12.9137C2.64806 12.3463 2.02625 11.5505 1.59494 10.6026C1.16363 9.65472 0.937254 8.58642 0.9375 7.5C0.9375 7.34699 0.888114 7.20025 0.800206 7.09205C0.712299 6.98386 0.59307 6.92308 0.46875 6.92308C0.34443 6.92308 0.225201 6.98386 0.137294 7.09205C0.049386 7.20025 0 7.34699 0 7.5C0 9.48912 0.642018 11.3968 1.78482 12.8033C2.92762 14.2098 4.47759 15 6.09375 15C7.70991 15 9.25988 14.2098 10.4027 12.8033C11.5455 11.3968 12.1875 9.48912 12.1875 7.5C12.1877 6.64428 12.0332 5.79923 11.7352 5.02609C11.4372 4.25294 11.0033 3.57105 10.4647 3.02983C9.92616 2.48862 9.29654 2.10163 8.62146 1.8969C7.94638 1.69217 7.24276 1.67484 6.56156 1.84615ZM9.375 7.5C9.375 8.11204 9.17746 8.69901 8.82582 9.13178C8.47419 9.56456 7.99728 9.80769 7.5 9.80769C7.00272 9.80769 6.52581 9.56456 6.17417 9.13178C5.82254 8.69901 5.625 8.11204 5.625 7.5C5.625 6.88796 5.82254 6.30099 6.17417 5.86822C6.52581 5.43544 7.00272 5.19231 7.5 5.19231C7.99728 5.19231 8.47419 5.43544 8.82582 5.86822C9.17746 6.30099 9.375 6.88796 9.375 7.5Z" fill="black"/>
</svg>
